<?xml version="1.0" standalone="no"?>
<!DOCTYPE svg PUBLIC "-//W3C//DTD SVG 20010904//EN"
 "http://www.w3.org/TR/2001/REC-SVG-20010904/DTD/svg10.dtd">
<svg version="1.0" xmlns="http://www.w3.org/2000/svg"
 width="24.000000pt" height="24.000000pt" viewBox="0 0 24.000000 24.000000"
 preserveAspectRatio="xMidYMid meet">

<g transform="translate(0.000000,24.000000) scale(0.100000,-0.100000)"
fill="#FFFFFF" stroke="none">
<path d="M80 222 c0 -13 23 -39 45 -50 19 -10 19 -11 -8 -21 -16 -6 -35 -11 -42 -11 -18 0 -45 -39 -45 -65 0 -12 -6 -27 -12 -34 -11 -11 -9 -13 9 -8 13 3 26 1 29 -4 3 -5 39 -9 80 -9 66 0 74 2 74 19 0 10 -7 24 -15 31 -21 17 -19 47 4 55 25 8 35 35 19 51 -38 36 -138 69 -138 46z m90 -33 c42 -22 53 -49 20 -49 -16 0 -20 -7 -20 -33 0 -18 5 -38 12 -45 6 -6 8 -15 4 -19 -4 -5 -13 0 -20 10 -7 9 -18 17 -23 17 -6 0 -16 7 -23 15 -7 8 -18 15 -24 15 -6 -1 5 -14 24 -31 l35 -30 -50 3 c-50 3 -50 3 -50 38 0 33 3 36 45 49 42 13 59 26 60 44 0 4 -6 7 -13 7 -7 0 -22 7 -33 15 -31 23 7 19 56 -6z"/>
</g>
</svg>